<!--?xml version="1.0" encoding="utf-8"?-->
<!-- Generator: Adobe Illustrator 18.1.1, SVG Export Plug-In . SVG Version: 6.00 Build 0)  -->

<svg version="1.1" id="_x31_0" xmlns="http://www.w3.org/2000/svg" xmlns:xlink="http://www.w3.org/1999/xlink" x="0px" y="0px" viewBox="0 0 512 512" style="width: 256px; height: 256px; opacity: 1;" xml:space="preserve">
<style type="text/css">
	.st0{fill:#374149;}
</style>
<g>
	<path class="st0" d="M314.683,260.852c-2.558,3.774-4.062,8.32-4.062,13.226c0,13.015,10.551,23.57,23.57,23.57
		c13.016,0,23.57-10.555,23.57-23.57c0-13.019-10.554-23.57-23.57-23.57c-4.602,0-8.863,1.371-12.492,3.652
		c-1.355-1.73-2.602-3.476-3.637-5.195c-1.543-2.64-2.679-5.206-3.578-7.453c-1.769-4.485-2.691-7.718-4.133-7.774
		c-1.242-0.074-2.863,3.274-2.664,9.129c0.122,2.906,0.77,6.383,2.238,10.012C311.031,255.547,312.711,258.25,314.683,260.852z" style="fill: rgb(75, 75, 75);"></path>
	<path class="st0" d="M201.379,274.078c0-13.019-10.551-23.57-23.57-23.57c-4.578,0-8.821,1.363-12.438,3.621
		c-1.344-1.718-2.582-3.457-3.61-5.164c-1.546-2.64-2.679-5.206-3.578-7.453c-1.769-4.485-2.691-7.718-4.133-7.774
		c-1.242-0.074-2.863,3.274-2.667,9.129c0.129,2.906,0.769,6.383,2.238,10.012c1.102,2.652,2.766,5.336,4.723,7.922
		c-2.582,3.786-4.106,8.352-4.106,13.278c0,13.015,10.554,23.57,23.57,23.57C190.828,297.648,201.379,287.093,201.379,274.078z" style="fill: rgb(75, 75, 75);"></path>
	<path class="st0" d="M373.57,91.86l31.148,6.546c6.954,1.461,12.598,6.52,14.809,13.274l9.902,30.25
		c0.317,0.958,0.836,1.742,1.266,2.61c0.062,0.125,0.122,0.258,0.188,0.383c4.91,9.398,16.125,12.945,25.363,8.906
		c0.109-0.046,0.214-0.098,0.32-0.148c2.375-1.09,4.649-2.523,6.57-4.668l10.816-12.066l5.051-5.633l10.816-12.066
		c10.215-11.398,4.262-29.586-10.718-32.734l-31.149-6.547c-6.949-1.461-12.594-6.519-14.804-13.273l-9.906-30.246
		c-0.313-0.965-0.836-1.754-1.27-2.625c-0.058-0.122-0.114-0.246-0.18-0.367c-4.91-9.406-16.133-12.954-25.371-8.906
		c-0.105,0.043-0.203,0.094-0.305,0.141c-2.378,1.09-4.656,2.523-6.582,4.672l-10.813,12.062l-5.054,5.637l-10.813,12.066
		C352.637,70.524,358.594,88.707,373.57,91.86z" style="fill: rgb(75, 75, 75);"></path>
	<path class="st0" d="M465.77,214.433c-5.282,0-10.305,1.188-14.992,3.301c-0.215,0.102-0.418,0.234-0.633,0.34
		c-7.715-27.398-20.57-52.488-37.45-74.035v-1.66c-0.058,0-0.11,0.008-0.16,0.012v-0.012l-0.125,0.019
		c-0.328,0.02-0.645,0.051-0.973,0.066c-37.129-46.453-92.981-76.035-155.469-76.035c-62.453,0-118.258,29.602-155.363,76.039
		c-0.34-0.019-0.672-0.05-1.012-0.07l-0.129-0.019v0.012c-0.054-0.004-0.102-0.012-0.16-0.012v1.637
		c-16.817,21.461-29.668,46.442-37.371,73.718c-0.031,0.11-0.05,0.226-0.082,0.336c-0.214-0.102-0.414-0.238-0.629-0.336
		c-4.687-2.113-9.71-3.301-14.992-3.301C20.672,214.433,0,241.972,0,275.918c0,33.945,20.672,61.488,46.23,61.488
		c4.953,0,9.641-0.992,14.066-2.91c0.074-0.031,0.153-0.074,0.226-0.113l0.473,0.054c0.004,0.02,0.008,0.039,0.012,0.058
		c23.71,89.161,102.035,154.61,194.961,154.61c93.09,0,171.43-65.625,195.074-154.942c0.222,0.102,0.434,0.234,0.66,0.332
		c4.426,1.918,9.114,2.91,14.066,2.91c25.558,0,46.23-27.543,46.23-61.488C512,241.972,491.328,214.433,465.77,214.433z
		 M465.77,310.988c-2.84,0-5.813-1.454-8.586-4.094c-0.226-0.218-0.441-0.496-0.667-0.726c1.199-9.297,1.87-18.766,1.87-28.402
		c0-10.762-0.781-21.336-2.27-31.672c0.203-0.218,0.399-0.48,0.606-0.687c2.906-2.906,6.008-4.554,9.047-4.554
		c9.18,0,19.813,15.32,19.813,35.066C485.582,295.664,474.95,310.988,465.77,310.988z M177.981,435.852
		c-3.074-1.688-6.161-3.367-9.122-5.246c-2.137-1.359-4.164-2.894-6.238-4.347c-2.05-1.434-4.16-2.79-6.148-4.317
		c-1.817-1.39-3.512-2.942-5.274-4.41c-2.156-1.797-4.363-3.523-6.43-5.426c-0.957-0.879-1.824-1.851-2.762-2.75
		c-28.34-27.254-47.958-64.406-53.59-106.294c-1.191-8.254-1.785-16.71-1.785-25.297c0-9.507,0.726-18.886,2.114-28
		c0.332-2.214,0.75-4.398,1.156-6.582c0.305-1.637,0.633-3.27,0.981-4.89c0.972-4.516,2.109-8.966,3.402-13.344
		c0.391-1.321,0.79-2.641,1.211-3.954c1.438-4.484,3.043-8.886,4.805-13.206c0.519-1.278,1.05-2.555,1.602-3.821
		c1.789-4.117,3.726-8.144,5.797-12.086c0.789-1.508,1.602-3.004,2.438-4.492c1.043-1.864,2.086-3.727,3.191-5.547
		c0.992,2.394,1.957,4.801,2.867,7.106c7.278,18.41,15.527,39.285,35.313,39.285c19.793,0,28.042-20.874,35.324-39.285
		c4.711-11.918,10.578-26.758,16.894-26.758c6.328,0,12.191,14.839,16.906,26.762c7.285,18.41,15.539,39.281,35.332,39.281
		c19.789,0,28.039-20.871,35.32-39.281c4.711-11.922,10.578-26.762,16.898-26.762c6.329,0,12.2,14.839,16.914,26.762
		c7.289,18.41,15.543,39.281,35.344,39.281c19.797,0,28.054-20.871,35.34-39.281c0.738-1.871,1.531-3.821,2.324-5.766
		c0.203-0.418,0.378-0.836,0.598-1.254c16.847,27.699,26.664,60.57,26.664,95.832c0,98.34-76.012,178.317-169.398,178.317
		c-26.574,0-51.734-6.489-74.141-18.031C180.516,437.375,179.278,436.566,177.981,435.852z M385.508,163.039
		c-3.098,5.894-5.688,12.39-8.153,18.625c-4.714,11.922-10.586,26.758-16.914,26.758c-6.332,0-12.203-14.836-16.918-26.762
		c-7.285-18.414-15.542-39.281-35.34-39.281c-19.793,0-28.042,20.875-35.324,39.289c-4.71,11.918-10.578,26.754-16.894,26.754
		c-6.324,0-12.191-14.836-16.906-26.754c-7.281-18.418-15.535-39.289-35.332-39.289c-19.789,0-28.039,20.871-35.32,39.285
		c-4.711,11.922-10.578,26.758-16.898,26.758c-6.313,0-12.176-14.836-16.887-26.754c-2.461-6.23-5.046-12.726-8.144-18.613
		c31.094-38.852,77.613-63.602,129.492-63.602C307.883,99.453,354.406,124.192,385.508,163.039z M53.614,277.765
		c0,9.668,0.648,19.137,1.843,28.43c-0.218,0.219-0.422,0.489-0.64,0.699c-2.774,2.641-5.746,4.094-8.586,4.094
		c-9.18,0-19.813-15.325-19.813-35.07c0-19.746,10.633-35.066,19.813-35.066c3.039,0,6.141,1.648,9.047,4.554
		c0.218,0.219,0.418,0.492,0.633,0.719C54.394,256.402,53.614,266.988,53.614,277.765z" style="fill: rgb(75, 75, 75);"></path>
	<path class="st0" d="M336.238,339.593c0.023-0.679,0.11-1.343,0.113-2.027h-0.007c0-0.054,0.007-0.106,0.007-0.16H175.649
		c0,44.375,35.972,80.352,80.351,80.352C299.637,417.758,335.07,382.949,336.238,339.593z" style="fill: rgb(75, 75, 75);"></path>
</g>
</svg>
