<!--?xml version="1.0" encoding="utf-8"?-->
<!-- Generator: Adobe Illustrator 18.1.1, SVG Export Plug-In . SVG Version: 6.00 Build 0)  -->

<svg version="1.1" id="_x31_0" xmlns="http://www.w3.org/2000/svg" xmlns:xlink="http://www.w3.org/1999/xlink" x="0px" y="0px" viewBox="0 0 512 512" style="width: 256px; height: 256px; opacity: 1;" xml:space="preserve">
<style type="text/css">
	.st0{fill:#374149;}
</style>
<g>
	<path class="st0" d="M334.191,275.879c13.016,0,23.57-10.555,23.57-23.57c0-13.016-10.554-23.566-23.57-23.566
		c-13.019,0-23.566,10.55-23.566,23.566C310.625,265.324,321.172,275.879,334.191,275.879z" style="fill: rgb(75, 75, 75);"></path>
	<path class="st0" d="M201.379,252.309c0-13.016-10.551-23.566-23.57-23.566c-13.012,0-23.566,10.55-23.566,23.566
		c0,13.015,10.554,23.57,23.566,23.57C190.828,275.879,201.379,265.324,201.379,252.309z" style="fill: rgb(75, 75, 75);"></path>
	<path class="st0" d="M465.77,192.664c-5.282,0-10.301,1.187-14.992,3.305c-0.215,0.098-0.418,0.234-0.633,0.336
		C425.465,108.676,347.91,44.664,255.969,44.664c-91.801,0-169.336,63.863-194.035,151.305c-0.031,0.113-0.05,0.222-0.082,0.336
		c-0.21-0.102-0.414-0.238-0.629-0.336c-4.687-2.118-9.71-3.305-14.992-3.305C20.672,192.664,0,220.207,0,254.148
		c0,33.95,20.672,61.489,46.23,61.489c4.953,0,9.641-0.992,14.066-2.906c0.082-0.035,0.156-0.078,0.234-0.117l0.465,0.054
		c0.004,0.019,0.008,0.043,0.016,0.062c23.706,89.156,102.035,154.606,194.957,154.606c93.09,0,171.43-65.622,195.074-154.934
		c0.222,0.098,0.434,0.234,0.66,0.328c4.426,1.914,9.114,2.906,14.066,2.906c25.562,0,46.23-27.539,46.23-61.489
		C512,220.207,491.332,192.664,465.77,192.664z M465.77,289.222c-2.84,0-5.809-1.457-8.582-4.098
		c-0.23-0.214-0.445-0.492-0.668-0.726c1.196-9.293,1.871-18.762,1.871-28.398c0-10.766-0.785-21.34-2.27-31.672
		c0.203-0.218,0.395-0.481,0.602-0.687c2.906-2.906,6.012-4.559,9.047-4.559c9.183,0,19.813,15.321,19.813,35.066
		C485.582,273.898,474.953,289.222,465.77,289.222z M177.981,414.086c-3.074-1.691-6.161-3.371-9.122-5.25
		c-2.129-1.352-4.141-2.879-6.207-4.324c-2.062-1.442-4.183-2.805-6.179-4.34c-1.805-1.383-3.492-2.926-5.242-4.383
		c-2.164-1.801-4.382-3.539-6.461-5.449c-0.957-0.879-1.824-1.852-2.762-2.754c-28.34-27.254-47.954-64.406-53.59-106.293
		c-1.187-8.254-1.785-16.711-1.785-25.293c0-9.512,0.73-18.886,2.114-28.004c3.558-23.73,11.594-45.91,23.152-65.57l32.078,40.582
		l7.406,9.43l0.023-0.031l0.102,0.129l42.558-53.828l9.684-12.188l42.5,53.73l9.59,12.184l0.023-0.031l0.102,0.133l42.691-53.992
		l9.555-12.028l42.398,53.586l9.707,12.324l0.023-0.027l0.102,0.129l29.375-37.129l10.297-12.926
		c15.992,27.21,25.254,59.242,25.254,93.527c0,98.34-76.012,178.316-169.398,178.316c-26.574,0-51.734-6.488-74.137-18.031
		C180.519,415.606,179.278,414.801,177.981,414.086z M308.18,114.55l-42.578,53.856l-9.66,12.156l-42.317-53.5l-9.77-12.414
		l-0.023,0.032l-0.106-0.13l-42.691,53.993l-9.547,12.015l-28-35.422c31.055-41.062,78.91-67.454,132.481-67.454
		c53.614,0,101.465,26.391,132.527,67.454l-22.957,29.015l-5.122,6.414L308.18,114.55z M53.614,256
		c0,9.668,0.648,19.137,1.843,28.43c-0.214,0.222-0.422,0.488-0.64,0.695c-2.774,2.641-5.742,4.098-8.586,4.098
		c-9.18,0-19.813-15.324-19.813-35.074c0-19.746,10.633-35.066,19.813-35.066c3.039,0,6.145,1.653,9.051,4.559
		c0.214,0.218,0.418,0.488,0.629,0.722C54.394,234.641,53.614,245.218,53.614,256z" style="fill: rgb(75, 75, 75);"></path>
	<path class="st0" d="M336.242,317.828c0.019-0.68,0.106-1.344,0.109-2.027h-0.007c0-0.054,0.007-0.11,0.007-0.164H175.649
		c0,44.378,35.976,80.355,80.351,80.355C299.641,395.992,335.07,361.183,336.242,317.828z" style="fill: rgb(75, 75, 75);"></path>
</g>
</svg>
