<!--?xml version="1.0" encoding="utf-8"?-->
<!-- Generator: Adobe Illustrator 18.1.1, SVG Export Plug-In . SVG Version: 6.00 Build 0)  -->

<svg version="1.1" id="_x31_0" xmlns="http://www.w3.org/2000/svg" xmlns:xlink="http://www.w3.org/1999/xlink" x="0px" y="0px" viewBox="0 0 512 512" style="width: 256px; height: 256px; opacity: 1;" xml:space="preserve">
<style type="text/css">
	.st0{fill:#374149;}
</style>
<g>
	<path class="st0" d="M255.98,203.55c56.211,0,101.774-45.566,101.774-101.773C357.754,45.566,312.192,0,255.98,0
		c-56.207,0-101.774,45.566-101.774,101.778C154.207,157.984,199.773,203.55,255.98,203.55z" style="fill: rgb(75, 75, 75);"></path>
	<path class="st0" d="M478.887,344.93L367.7,244.426c-2.973-2.797-6.364-4.918-9.93-6.445c-4.828-2.203-10.086-3.309-15.266-3.309
		h-172.93c-5.258,0-10.515,1.106-15.351,3.309c-3.562,1.527-6.867,3.734-9.836,6.445L33.109,344.93
		c-8.054,7.379-12.125,17.387-12.125,27.562c0,8.992,3.309,18.066,9.836,25.191c13.914,15.266,37.574,16.282,52.754,2.375
		l42.43-38.355l28.219-25.367V512h203.546V406.766l0.11-70.477l70.629,63.77c15.18,13.906,38.844,12.891,52.754-2.375
		c6.531-7.125,9.754-16.199,9.754-25.191C491.016,362.402,486.945,352.309,478.887,344.93z" style="fill: rgb(75, 75, 75);"></path>
</g>
</svg>
