<!--?xml version="1.0" encoding="utf-8"?-->
<!-- Generator: Adobe Illustrator 18.1.1, SVG Export Plug-In . SVG Version: 6.00 Build 0)  -->

<svg version="1.1" id="_x31_0" xmlns="http://www.w3.org/2000/svg" xmlns:xlink="http://www.w3.org/1999/xlink" x="0px" y="0px" viewBox="0 0 512 512" style="width: 256px; height: 256px; opacity: 1;" xml:space="preserve">
<style type="text/css">
	.st0{fill:#374149;}
</style>
<g>
	<path class="st0" d="M316.125,262.56c-2.562,3.774-4.062,8.32-4.062,13.226c0,13.016,10.551,23.57,23.57,23.57
		c13.016,0,23.57-10.554,23.57-23.57c0-13.023-10.554-23.57-23.57-23.57c-4.602,0-8.863,1.371-12.492,3.653
		c-1.356-1.734-2.602-3.477-3.637-5.199c-1.543-2.641-2.68-5.207-3.578-7.45c-1.77-4.488-2.695-7.722-4.133-7.774
		c-1.242-0.078-2.863,3.274-2.668,9.13c0.129,2.898,0.774,6.382,2.238,10.011C312.469,257.256,314.152,259.959,316.125,262.56z" style="fill: rgb(75, 75, 75);"></path>
	<path class="st0" d="M465.77,216.15c-5.286,0-10.305,1.188-14.996,3.301c-0.188,0.062-0.375,0.188-0.566,0.25
		c-6.39-22.656-16.457-43.653-29.203-62.45c-0.809-1.206-1.512-2.473-2.344-3.672c1.981-0.797,3.871-1.75,5.734-2.742
		c0.199-0.09,0.379-0.172,0.578-0.262l2.086,6.367c0.317,0.961,0.836,1.746,1.266,2.613c0.062,0.129,0.122,0.258,0.188,0.383
		c4.914,9.406,16.14,12.949,25.382,8.898c0.094-0.043,0.188-0.086,0.286-0.133c2.378-1.09,4.66-2.524,6.59-4.676l10.813-12.062
		l5.054-5.641l10.813-12.066c10.218-11.394,4.266-29.586-10.715-32.734l-19.07-4.008c0.023-0.683,0.114-1.347,0.114-2.038v-1.055
		c0-16.246-13.211-29.39-29.391-29.39h-3.07l-4.446-13.582c-0.317-0.961-0.836-1.75-1.27-2.621c-0.062-0.121-0.118-0.246-0.18-0.367
		c-4.91-9.406-16.133-12.953-25.374-8.91c-0.106,0.047-0.203,0.094-0.309,0.145c-2.379,1.09-4.653,2.523-6.578,4.668l-10.812,12.066
		l-3.301,3.683c-2.954-2.187-5.958-4.301-9.028-6.324c-31.238-20.672-68.289-32.629-107.984-32.629
		c-39.762,0-76.883,11.957-108.121,32.629c-1.801,1.188-3.454,2.57-5.211,3.817c-1.672,1.187-3.383,2.441-5.082,3.726
		c-1.66,1.262-3.422,2.39-5.046,3.699H83.617c-16.183,0-29.39,13.145-29.39,29.39v1.055c0,20.742,10.106,39.105,25.558,50.594
		c3.875,2.828,8.126,5.203,12.633,7.07c0.336,0.152,0.649,0.343,0.989,0.492c-13.926,19.606-24.688,41.855-31.489,65.816
		c0,0.066-0.062,0.199-0.062,0.266c0,0.004-0.004,0.012-0.004,0.012c-0.011,0-0.019-0.008-0.027-0.012
		c-0.203-0.066-0.398-0.199-0.598-0.266c-4.687-2.113-9.707-3.301-14.992-3.301C20.676,216.15,0,243.689,0,277.639
		c0,33.949,20.676,61.492,46.234,61.492c4.953,0,9.645-0.992,14.07-2.906c0.082-0.031,0.168-0.07,0.25-0.113l0.426,0.05
		c0.007,0.023,0.015,0.047,0.015,0.062c4.324,16.258,10.481,31.719,18.195,46.145l3.258,83.457l0.797,21.348l0.038-0.012
		l0.008,0.164l74.226-23.187c29.145,16.992,62.707,26.699,98.45,26.699c35.762,0,69.336-9.711,98.496-26.703l58.875,18.39
		l15.21,4.793v-0.039l0.161,0.047l4.098-104.902c4.426-8.262,8.277-16.898,11.633-25.793c2.644-6.715,5.086-13.516,7.274-20.402
		c4.422,1.91,9.105,2.902,14.054,2.902c25.558,0,46.23-27.543,46.23-61.492C512,243.689,491.328,216.15,465.77,216.15z
		 M465.77,312.709c-2.84,0-5.813-1.45-8.586-4.094c-0.191-0.187-0.441-0.437-0.633-0.629c0-0.011,0-0.019,0-0.027
		c1.258-9.316,1.852-18.824,1.852-28.473c0-10.766-0.793-21.398-2.242-31.699c-0.004-0.011-0.008-0.019-0.008-0.031
		c0.188-0.191,0.379-0.442,0.566-0.633c2.906-2.906,6.012-4.554,9.051-4.554c9.18,0,19.813,15.324,19.813,35.07
		C485.582,297.388,474.95,312.709,465.77,312.709z M403.621,451.811l-14.218-4.442l-7.519-2.434
		c8.175-6.793,15.839-14.215,22.914-22.219l-0.91,23.301L403.621,451.811z M177.465,437.291c-2.894-1.606-5.805-3.176-8.594-4.946
		c-2.289-1.453-4.461-3.09-6.68-4.652c-1.898-1.34-3.859-2.59-5.707-4.008c-1.941-1.488-3.758-3.14-5.636-4.714
		c-2.031-1.699-4.118-3.325-6.07-5.122c-1.07-0.984-2.051-2.074-3.098-3.086c-28.168-27.226-47.661-64.25-53.274-105.981
		c-1.191-8.254-1.786-16.706-1.786-25.297c0-9.507,0.727-18.886,2.114-28c2.906-19.418,8.785-37.781,17.172-54.558
		c1.55-3.121,3.214-6.164,4.934-9.172c1.902,4.125,3.699,8.629,5.343,12.805c7.282,18.414,15.532,39.289,35.321,39.289
		c0.519,0,1.008-0.062,1.512-0.102c0.066,0.004,0.09,0,0.16,0.008c-0.254,1.352-0.426,2.89-0.359,4.821
		c0.125,2.898,0.766,6.382,2.238,10.011c1.098,2.653,2.762,5.332,4.719,7.922c-2.582,3.785-4.106,8.351-4.106,13.277
		c0,13.016,10.554,23.57,23.57,23.57c13.023,0,23.574-10.554,23.574-23.57c0-13.023-10.551-23.57-23.574-23.57
		c-4.578,0-8.821,1.36-12.434,3.622c-1.348-1.723-2.586-3.461-3.614-5.168c-1.542-2.641-2.679-5.207-3.578-7.45
		c-0.63-1.602-1.137-2.942-1.614-4.129l-0.027-0.086c15.226-4.031,22.426-22.184,28.855-38.446
		c4.711-11.922,10.578-26.758,16.894-26.758c6.328,0,12.195,14.836,16.91,26.758c7.285,18.418,15.539,39.289,35.332,39.289
		s28.043-20.87,35.324-39.289c4.711-11.922,10.578-26.758,16.898-26.758c6.332,0,12.199,14.836,16.914,26.758
		c7.289,18.418,15.547,39.289,35.348,39.289c19.797,0,28.054-20.87,35.343-39.289c1.305-3.305,2.726-6.785,4.203-10.16
		c0.402-0.848,0.766-1.715,1.199-2.543c1.699,2.977,3.355,5.985,4.898,9.07c12.286,24.703,19.286,52.774,19.286,82.558
		c0,98.348-76.024,178.328-169.41,178.328c-26.566,0-51.726-6.484-74.129-18.023C180.348,439.021,178.934,438.108,177.465,437.291z
		 M108.34,451.783l-1.133-29.066c5.742,6.504,11.969,12.516,18.449,18.227c1.489,1.351,2.914,2.766,4.434,4.086l-17.347,5.422
		L108.34,451.783z M89.836,119.459c-1.293-1.449-2.469-3-3.516-4.645c-0.328-0.515-0.637-1.038-0.937-1.57
		c-0.958-1.684-1.786-3.446-2.466-5.278c-0.226-0.606-0.426-1.219-0.617-1.832c-0.574-1.852-1.008-3.758-1.278-5.715
		c-0.09-0.641-0.156-1.277-0.21-1.922c-0.082-1-0.168-2-0.168-3.019v-1.055c0-1.648,1.32-2.973,2.972-2.973h79.95H348.5h7.332
		c1.527,7.286,7.047,13.672,15.363,15.418l31.153,6.55c6.238,1.313,11.285,5.614,13.878,11.348
		c-4.644,3.375-10.019,5.766-15.91,6.641c-1.719,0.266-3.504,0.398-5.286,0.398h-44.218H161.191h-44.187
		c-1.852,0-3.633-0.133-5.418-0.398v0.004c-0.011,0-0.019,0-0.031-0.004c-6.934-1.055-13.21-4.09-18.297-8.52
		c-0.73-0.633-1.414-1.32-2.094-2.008C90.707,120.42,90.266,119.944,89.836,119.459z M388.785,169.033
		c-4.644,7.16-8.14,15.942-11.422,24.242c-4.714,11.922-10.586,26.758-16.914,26.758c-6.333,0-12.203-14.836-16.918-26.762
		c-5.297-13.383-11.129-28.024-21.504-35.047h57.977C383.09,161.685,385.988,165.318,388.785,169.033z M294.191,158.357
		c-10.266,7.07-16.066,21.61-21.328,34.922c-4.714,11.918-10.578,26.754-16.898,26.754c-6.324,0-12.187-14.836-16.906-26.754
		c-5.293-13.386-11.121-28.031-21.5-35.054h41.922L294.191,158.357z M134.614,193.279c-3.282-8.3-6.77-17.082-11.41-24.242
		c2.805-3.719,5.707-7.348,8.793-10.813h31.766l25.969,0.133c-10.266,7.066-16.066,21.606-21.328,34.918
		c-4.711,11.922-10.578,26.758-16.898,26.758C145.187,220.033,139.324,205.197,134.614,193.279z M53.598,279.486
		c0,9.703,0.664,19.199,1.844,28.504c-0.008,0.008-0.016,0.023-0.027,0.031c-0.196,0.195-0.395,0.398-0.594,0.594
		c-2.773,2.645-5.746,4.094-8.586,4.094c-9.18,0-19.817-15.321-19.817-35.07c0-19.746,10.637-35.07,19.817-35.07
		c3.039,0,6.141,1.648,9.047,4.554c0.199,0.203,0.398,0.465,0.598,0.664c0.007,0.012,0.015,0.024,0.027,0.035
		C54.39,258.115,53.598,268.67,53.598,279.486z" style="fill: rgb(75, 75, 75);"></path>
	<path class="st0" d="M336.246,341.314c0.019-0.683,0.109-1.347,0.109-2.035h-0.007c0-0.05,0.011-0.105,0.011-0.16H175.645
		c0,44.383,35.976,80.36,80.355,80.36C299.641,419.479,335.074,384.674,336.246,341.314z" style="fill: rgb(75, 75, 75);"></path>
</g>
</svg>
