<!--?xml version="1.0" encoding="utf-8"?-->
<!-- Generator: Adobe Illustrator 18.1.1, SVG Export Plug-In . SVG Version: 6.00 Build 0)  -->

<svg version="1.1" id="_x31_0" xmlns="http://www.w3.org/2000/svg" xmlns:xlink="http://www.w3.org/1999/xlink" x="0px" y="0px" viewBox="0 0 512 512" style="width: 256px; height: 256px; opacity: 1;" xml:space="preserve">
<style type="text/css">
	.st0{fill:#374149;}
</style>
<g>
	<path class="st0" d="M405.199,84.879H339.64h-0.039V53.867V53.68l0,0v-0.161H318.8C313.922,23.282,287.68,0,256,0
		c-31.679,0-57.922,23.282-62.801,53.519h-20.574l-0.066-0.003v0.003h-0.161v31.36H106.8c-24,0-43.519,19.602-43.519,43.523v187.094
		v29.918v123.066C63.281,492.402,82.8,512,106.8,512h298.398c24,0,43.52-19.598,43.52-43.519V296.934v-29.918V128.402
		C448.719,104.481,429.199,84.879,405.199,84.879z M222.098,53.473C226.512,38.938,240.016,28.32,256,28.32
		c14.059,0,26.196,8.223,31.918,20.098c0.774,1.63,1.422,3.333,1.942,5.102h-52.626L222.098,53.473z M339.601,133.442h60.637
		v133.574H369.84l-32.32-59.922c-2.558-4.797-7.442-7.758-13.199-7.84c-5.52,0-10.558,3.122-13.122,8l-40.89,77.336l-23.16,43.61
		l-39.07-74.465c-2.558-4.879-7.598-7.918-13.039-8c-5.758-0.078-10.641,2.961-13.277,7.762l-33.922,62h-36.078V134.39v-0.949
		h60.636v29.598h167.203v-29.578V133.442z M111.762,463.438V345.414h44.957c5.442,0,10.48-3.039,13.043-7.758l15.894-29.078
		l8.953-16.188l39.313,74.863c2.558,4.962,7.679,8,13.199,8c5.598,0,10.641-3.038,13.277-7.918l41.039-77.722l23.094-43.543
		l23.23,43.023c2.636,4.801,7.679,7.84,13.117,7.84h39.359v166.508H112.48L111.762,463.438z" style="fill: rgb(75, 75, 75);"></path>
	<path class="st0" d="M334,335.602c-30.078,0-54.398,24.398-54.398,54.481c0,30.078,24.321,54.398,54.398,54.398
		c30.078,0,54.481-24.321,54.481-54.398C388.48,360,364.078,335.602,334,335.602z M333.879,376.77l0.012-0.012
		c0.05,0.055,0.109,0.122,0.109,0.122s14.161-16.157,24.238-8.321C379.36,385.039,334,419.442,334,419.442
		s-45.281-34.402-24.238-50.883c9.355-7.277,22.214,6.11,24.007,8.066C333.789,376.656,333.883,376.766,333.879,376.77z" style="fill: rgb(75, 75, 75);"></path>
</g>
</svg>
